<mxfile host="app.diagrams.net" modified="2022-11-06T16:09:24.456Z" agent="5.0 (Windows NT 10.0; Win64; x64) AppleWebKit/537.36 (KHTML, like Gecko) Chrome/105.0.0.0 Safari/537.36 Edg/105.0.1343.27" etag="yMw7LP3qWaDD_b5e_PGg" version="20.5.2" type="github">
  <diagram id="_Fwo6dbQD_SpmUg102bt" name="第 1 页">
    <mxGraphModel dx="1038" dy="539" grid="1" gridSize="10" guides="1" tooltips="1" connect="1" arrows="1" fold="1" page="1" pageScale="1" pageWidth="2339" pageHeight="3300" math="0" shadow="0">
      <root>
        <mxCell id="0" />
        <mxCell id="1" parent="0" />
        <mxCell id="zlRryZ_MGgyLcwW-DXxL-69" value="" style="rounded=0;whiteSpace=wrap;html=1;shadow=1;fontSize=24;fillColor=#ffcc99;strokeColor=#36393d;" parent="1" vertex="1">
          <mxGeometry x="40" y="840" width="210" height="290" as="geometry" />
        </mxCell>
        <mxCell id="zlRryZ_MGgyLcwW-DXxL-32" value="" style="rounded=0;whiteSpace=wrap;html=1;fontSize=16;" parent="1" vertex="1">
          <mxGeometry x="360" y="680" width="830" height="640" as="geometry" />
        </mxCell>
        <mxCell id="MSgZp5bjOsI687TEka7H-1" value="" style="ellipse;whiteSpace=wrap;html=1;strokeWidth=2;strokeColor=#0000FF;" parent="1" vertex="1">
          <mxGeometry x="40" y="70" width="100" height="170" as="geometry" />
        </mxCell>
        <mxCell id="MSgZp5bjOsI687TEka7H-2" value="&lt;font color=&quot;#ff0000&quot;&gt;Filter1&lt;/font&gt;" style="text;html=1;align=center;verticalAlign=middle;resizable=0;points=[];autosize=1;strokeColor=none;fillColor=none;fontSize=25;" parent="1" vertex="1">
          <mxGeometry x="45" y="20" width="90" height="40" as="geometry" />
        </mxCell>
        <mxCell id="MSgZp5bjOsI687TEka7H-4" value="&lt;font color=&quot;#ff0000&quot;&gt;Filter2&lt;/font&gt;" style="text;html=1;align=center;verticalAlign=middle;resizable=0;points=[];autosize=1;strokeColor=none;fillColor=none;fontSize=25;" parent="1" vertex="1">
          <mxGeometry x="235" y="20" width="90" height="40" as="geometry" />
        </mxCell>
        <mxCell id="MSgZp5bjOsI687TEka7H-5" value="&lt;font color=&quot;#ff8000&quot; style=&quot;font-size: 20px;&quot;&gt;servlet，html，jsp&lt;br&gt;等等&lt;/font&gt;" style="ellipse;whiteSpace=wrap;html=1;strokeWidth=2;strokeColor=#0000FF;" parent="1" vertex="1">
          <mxGeometry x="420" y="70" width="100" height="170" as="geometry" />
        </mxCell>
        <mxCell id="MSgZp5bjOsI687TEka7H-7" value="&lt;font color=&quot;#ff0000&quot;&gt;资源&lt;/font&gt;" style="text;html=1;align=center;verticalAlign=middle;resizable=0;points=[];autosize=1;strokeColor=none;fillColor=none;fontSize=25;" parent="1" vertex="1">
          <mxGeometry x="435" y="20" width="70" height="40" as="geometry" />
        </mxCell>
        <mxCell id="MSgZp5bjOsI687TEka7H-8" value="&lt;font color=&quot;#000000&quot;&gt;放行前逻辑&lt;/font&gt;" style="text;html=1;align=center;verticalAlign=middle;resizable=0;points=[];autosize=1;strokeColor=none;fillColor=none;fontSize=20;fontColor=#FF8000;" parent="1" vertex="1">
          <mxGeometry x="30" y="80" width="120" height="40" as="geometry" />
        </mxCell>
        <mxCell id="MSgZp5bjOsI687TEka7H-9" value="放行" style="text;html=1;align=center;verticalAlign=middle;resizable=0;points=[];autosize=1;strokeColor=none;fillColor=none;fontSize=20;fontColor=#000000;" parent="1" vertex="1">
          <mxGeometry x="60" y="135" width="60" height="40" as="geometry" />
        </mxCell>
        <mxCell id="MSgZp5bjOsI687TEka7H-11" value="放行后逻辑" style="text;html=1;align=center;verticalAlign=middle;resizable=0;points=[];autosize=1;strokeColor=none;fillColor=none;fontSize=20;fontColor=#000000;" parent="1" vertex="1">
          <mxGeometry x="30" y="190" width="120" height="40" as="geometry" />
        </mxCell>
        <mxCell id="MSgZp5bjOsI687TEka7H-12" value="" style="ellipse;whiteSpace=wrap;html=1;strokeWidth=2;strokeColor=#0000FF;" parent="1" vertex="1">
          <mxGeometry x="230" y="70" width="100" height="170" as="geometry" />
        </mxCell>
        <mxCell id="MSgZp5bjOsI687TEka7H-13" value="&lt;font color=&quot;#000000&quot;&gt;放行前逻辑&lt;/font&gt;" style="text;html=1;align=center;verticalAlign=middle;resizable=0;points=[];autosize=1;strokeColor=none;fillColor=none;fontSize=20;fontColor=#FF8000;" parent="1" vertex="1">
          <mxGeometry x="220" y="80" width="120" height="40" as="geometry" />
        </mxCell>
        <mxCell id="MSgZp5bjOsI687TEka7H-14" value="放行" style="text;html=1;align=center;verticalAlign=middle;resizable=0;points=[];autosize=1;strokeColor=none;fillColor=none;fontSize=20;fontColor=#000000;" parent="1" vertex="1">
          <mxGeometry x="250" y="135" width="60" height="40" as="geometry" />
        </mxCell>
        <mxCell id="MSgZp5bjOsI687TEka7H-15" value="放行后逻辑" style="text;html=1;align=center;verticalAlign=middle;resizable=0;points=[];autosize=1;strokeColor=none;fillColor=none;fontSize=20;fontColor=#000000;" parent="1" vertex="1">
          <mxGeometry x="220" y="190" width="120" height="40" as="geometry" />
        </mxCell>
        <mxCell id="MSgZp5bjOsI687TEka7H-17" value="" style="endArrow=classic;html=1;rounded=0;fontSize=20;fontColor=#000000;strokeColor=#FF0000;" parent="1" edge="1">
          <mxGeometry width="50" height="50" relative="1" as="geometry">
            <mxPoint x="90" y="100" as="sourcePoint" />
            <mxPoint x="89.70999999999998" y="150" as="targetPoint" />
          </mxGeometry>
        </mxCell>
        <mxCell id="MSgZp5bjOsI687TEka7H-18" value="" style="endArrow=classic;html=1;rounded=0;strokeColor=#FF0000;fontSize=20;fontColor=#000000;entryX=0.083;entryY=0.5;entryDx=0;entryDy=0;entryPerimeter=0;" parent="1" target="MSgZp5bjOsI687TEka7H-13" edge="1">
          <mxGeometry width="50" height="50" relative="1" as="geometry">
            <mxPoint x="110" y="160" as="sourcePoint" />
            <mxPoint x="200" y="120" as="targetPoint" />
          </mxGeometry>
        </mxCell>
        <mxCell id="MSgZp5bjOsI687TEka7H-20" value="" style="endArrow=classic;html=1;rounded=0;fontSize=20;fontColor=#000000;strokeColor=#FF0000;" parent="1" edge="1">
          <mxGeometry width="50" height="50" relative="1" as="geometry">
            <mxPoint x="280" y="100" as="sourcePoint" />
            <mxPoint x="279.71000000000004" y="150" as="targetPoint" />
          </mxGeometry>
        </mxCell>
        <mxCell id="MSgZp5bjOsI687TEka7H-21" value="" style="endArrow=classic;html=1;rounded=0;strokeColor=#FF0000;fontSize=20;fontColor=#000000;" parent="1" edge="1">
          <mxGeometry width="50" height="50" relative="1" as="geometry">
            <mxPoint x="300" y="155" as="sourcePoint" />
            <mxPoint x="420" y="135" as="targetPoint" />
          </mxGeometry>
        </mxCell>
        <mxCell id="MSgZp5bjOsI687TEka7H-22" value="" style="endArrow=classic;html=1;rounded=0;strokeColor=#FF0000;fontSize=20;fontColor=#000000;" parent="1" edge="1">
          <mxGeometry width="50" height="50" relative="1" as="geometry">
            <mxPoint x="440" y="190" as="sourcePoint" />
            <mxPoint x="330" y="210" as="targetPoint" />
          </mxGeometry>
        </mxCell>
        <mxCell id="MSgZp5bjOsI687TEka7H-23" value="" style="endArrow=classic;html=1;rounded=0;strokeColor=#FF0000;fontSize=20;fontColor=#000000;" parent="1" edge="1">
          <mxGeometry width="50" height="50" relative="1" as="geometry">
            <mxPoint x="235" y="209.70999999999998" as="sourcePoint" />
            <mxPoint x="140" y="209.70999999999998" as="targetPoint" />
          </mxGeometry>
        </mxCell>
        <mxCell id="dn_sL8EcAGQBMmX2uD5K-1" value="" style="rounded=0;whiteSpace=wrap;html=1;fontSize=20;" parent="1" vertex="1">
          <mxGeometry x="40" y="330" width="400" height="290" as="geometry" />
        </mxCell>
        <mxCell id="dn_sL8EcAGQBMmX2uD5K-4" value="" style="rounded=0;whiteSpace=wrap;html=1;fontSize=20;" parent="1" vertex="1">
          <mxGeometry x="50" y="420" width="380" height="190" as="geometry" />
        </mxCell>
        <mxCell id="dn_sL8EcAGQBMmX2uD5K-5" value="" style="rounded=0;whiteSpace=wrap;html=1;fontSize=20;" parent="1" vertex="1">
          <mxGeometry x="50" y="340" width="380" height="70" as="geometry" />
        </mxCell>
        <mxCell id="dn_sL8EcAGQBMmX2uD5K-6" value="DockerHost" style="rounded=0;whiteSpace=wrap;html=1;fontSize=20;" parent="1" vertex="1">
          <mxGeometry x="40" y="290" width="110" height="40" as="geometry" />
        </mxCell>
        <mxCell id="dn_sL8EcAGQBMmX2uD5K-7" value="Volumes" style="rounded=0;whiteSpace=wrap;html=1;fontSize=20;" parent="1" vertex="1">
          <mxGeometry x="50" y="340" width="100" height="30" as="geometry" />
        </mxCell>
        <mxCell id="dn_sL8EcAGQBMmX2uD5K-8" value="宿主机文件系统" style="rounded=0;whiteSpace=wrap;html=1;fontSize=20;" parent="1" vertex="1">
          <mxGeometry x="50" y="420" width="150" height="50" as="geometry" />
        </mxCell>
        <mxCell id="dn_sL8EcAGQBMmX2uD5K-12" value="html" style="rounded=0;whiteSpace=wrap;html=1;fontSize=20;" parent="1" vertex="1">
          <mxGeometry x="340" y="360" width="60" height="30" as="geometry" />
        </mxCell>
        <mxCell id="dn_sL8EcAGQBMmX2uD5K-13" value="var" style="rounded=0;whiteSpace=wrap;html=1;fontSize=20;" parent="1" vertex="1">
          <mxGeometry x="50" y="480" width="60" height="20" as="geometry" />
        </mxCell>
        <mxCell id="dn_sL8EcAGQBMmX2uD5K-21" value="lib" style="rounded=0;whiteSpace=wrap;html=1;fontSize=20;" parent="1" vertex="1">
          <mxGeometry x="110" y="490" width="60" height="20" as="geometry" />
        </mxCell>
        <mxCell id="dn_sL8EcAGQBMmX2uD5K-22" value="docker" style="rounded=0;whiteSpace=wrap;html=1;fontSize=20;" parent="1" vertex="1">
          <mxGeometry x="170" y="500" width="70" height="20" as="geometry" />
        </mxCell>
        <mxCell id="dn_sL8EcAGQBMmX2uD5K-23" value="volumes" style="rounded=0;whiteSpace=wrap;html=1;fontSize=20;" parent="1" vertex="1">
          <mxGeometry x="240" y="510" width="90" height="20" as="geometry" />
        </mxCell>
        <mxCell id="dn_sL8EcAGQBMmX2uD5K-24" value="html" style="rounded=0;whiteSpace=wrap;html=1;fontSize=20;" parent="1" vertex="1">
          <mxGeometry x="330" y="520" width="60" height="20" as="geometry" />
        </mxCell>
        <mxCell id="dn_sL8EcAGQBMmX2uD5K-28" value="tmp" style="rounded=0;whiteSpace=wrap;html=1;fontSize=20;" parent="1" vertex="1">
          <mxGeometry x="50" y="550" width="60" height="20" as="geometry" />
        </mxCell>
        <mxCell id="dn_sL8EcAGQBMmX2uD5K-29" value="nginx" style="rounded=0;whiteSpace=wrap;html=1;fontSize=20;" parent="1" vertex="1">
          <mxGeometry x="110" y="560" width="60" height="20" as="geometry" />
        </mxCell>
        <mxCell id="dn_sL8EcAGQBMmX2uD5K-30" value="conf" style="rounded=0;whiteSpace=wrap;html=1;fontSize=20;" parent="1" vertex="1">
          <mxGeometry x="170" y="570" width="60" height="20" as="geometry" />
        </mxCell>
        <mxCell id="dn_sL8EcAGQBMmX2uD5K-34" value="" style="endArrow=classic;html=1;rounded=0;dashed=1;strokeColor=#0000FF;strokeWidth=2;fontSize=20;exitX=0.5;exitY=1;exitDx=0;exitDy=0;entryX=0.5;entryY=0;entryDx=0;entryDy=0;" parent="1" source="dn_sL8EcAGQBMmX2uD5K-12" target="dn_sL8EcAGQBMmX2uD5K-24" edge="1">
          <mxGeometry width="50" height="50" relative="1" as="geometry">
            <mxPoint x="570" y="650" as="sourcePoint" />
            <mxPoint x="680" y="690" as="targetPoint" />
          </mxGeometry>
        </mxCell>
        <mxCell id="dn_sL8EcAGQBMmX2uD5K-36" value="" style="group" parent="1" vertex="1" connectable="0">
          <mxGeometry x="590" y="300" width="260" height="100" as="geometry" />
        </mxCell>
        <mxCell id="dn_sL8EcAGQBMmX2uD5K-2" value="" style="rounded=0;whiteSpace=wrap;html=1;fontSize=20;" parent="dn_sL8EcAGQBMmX2uD5K-36" vertex="1">
          <mxGeometry width="260" height="100" as="geometry" />
        </mxCell>
        <mxCell id="dn_sL8EcAGQBMmX2uD5K-9" value="Container" style="rounded=0;whiteSpace=wrap;html=1;fontSize=20;" parent="dn_sL8EcAGQBMmX2uD5K-36" vertex="1">
          <mxGeometry width="100" height="30" as="geometry" />
        </mxCell>
        <mxCell id="dn_sL8EcAGQBMmX2uD5K-31" value="/usr/share/nginx/html" style="rounded=0;whiteSpace=wrap;html=1;fontSize=20;" parent="dn_sL8EcAGQBMmX2uD5K-36" vertex="1">
          <mxGeometry x="25" y="50" width="210" height="30" as="geometry" />
        </mxCell>
        <mxCell id="dn_sL8EcAGQBMmX2uD5K-37" value="" style="group" parent="1" vertex="1" connectable="0">
          <mxGeometry x="590" y="450" width="260" height="100" as="geometry" />
        </mxCell>
        <mxCell id="dn_sL8EcAGQBMmX2uD5K-26" value="" style="rounded=0;whiteSpace=wrap;html=1;fontSize=20;" parent="dn_sL8EcAGQBMmX2uD5K-37" vertex="1">
          <mxGeometry width="260" height="100" as="geometry" />
        </mxCell>
        <mxCell id="dn_sL8EcAGQBMmX2uD5K-27" value="Container" style="rounded=0;whiteSpace=wrap;html=1;fontSize=20;" parent="dn_sL8EcAGQBMmX2uD5K-37" vertex="1">
          <mxGeometry width="100" height="30" as="geometry" />
        </mxCell>
        <mxCell id="dn_sL8EcAGQBMmX2uD5K-32" value="/etc/nginx/conf" style="rounded=0;whiteSpace=wrap;html=1;fontSize=20;" parent="dn_sL8EcAGQBMmX2uD5K-37" vertex="1">
          <mxGeometry x="25" y="50" width="210" height="30" as="geometry" />
        </mxCell>
        <mxCell id="dn_sL8EcAGQBMmX2uD5K-33" value="" style="endArrow=classic;html=1;rounded=0;fontSize=20;entryX=1;entryY=0.5;entryDx=0;entryDy=0;exitX=0;exitY=0.5;exitDx=0;exitDy=0;strokeWidth=2;strokeColor=#0000FF;dashed=1;" parent="1" source="dn_sL8EcAGQBMmX2uD5K-31" target="dn_sL8EcAGQBMmX2uD5K-12" edge="1">
          <mxGeometry width="50" height="50" relative="1" as="geometry">
            <mxPoint x="510" y="440" as="sourcePoint" />
            <mxPoint x="560" y="390" as="targetPoint" />
          </mxGeometry>
        </mxCell>
        <mxCell id="dn_sL8EcAGQBMmX2uD5K-35" value="" style="endArrow=classic;html=1;rounded=0;dashed=1;strokeColor=#FF0000;strokeWidth=2;fontSize=20;entryX=1;entryY=0.5;entryDx=0;entryDy=0;exitX=0;exitY=0.5;exitDx=0;exitDy=0;" parent="1" source="dn_sL8EcAGQBMmX2uD5K-32" target="dn_sL8EcAGQBMmX2uD5K-30" edge="1">
          <mxGeometry width="50" height="50" relative="1" as="geometry">
            <mxPoint x="760" y="590" as="sourcePoint" />
            <mxPoint x="590" y="640" as="targetPoint" />
          </mxGeometry>
        </mxCell>
        <mxCell id="dn_sL8EcAGQBMmX2uD5K-38" value="&lt;font style=&quot;font-size: 23px;&quot; face=&quot;Comic Sans MS&quot; color=&quot;#0000ff&quot;&gt;通过数据卷挂载&lt;/font&gt;" style="text;html=1;align=center;verticalAlign=middle;resizable=0;points=[];autosize=1;strokeColor=none;fillColor=none;fontSize=20;rotation=357;" parent="1" vertex="1">
          <mxGeometry x="420" y="320" width="180" height="40" as="geometry" />
        </mxCell>
        <mxCell id="dn_sL8EcAGQBMmX2uD5K-39" value="&lt;font color=&quot;#ff0000&quot;&gt;宿主机目录直接挂载到容器内目录&lt;/font&gt;" style="text;html=1;align=center;verticalAlign=middle;resizable=0;points=[];autosize=1;strokeColor=none;fillColor=none;fontSize=23;fontFamily=Comic Sans MS;fontColor=#0000FF;rotation=350;" parent="1" vertex="1">
          <mxGeometry x="245" y="550" width="370" height="40" as="geometry" />
        </mxCell>
        <mxCell id="Me-h36C_1b-pKiEcUrvr-1" value="" style="aspect=fixed;perimeter=ellipsePerimeter;html=1;align=center;shadow=0;dashed=0;spacingTop=3;image;image=img/lib/active_directory/laptop_client.svg;" parent="1" vertex="1">
          <mxGeometry x="1120" y="430" width="45" height="50" as="geometry" />
        </mxCell>
        <mxCell id="Me-h36C_1b-pKiEcUrvr-2" value="" style="aspect=fixed;perimeter=ellipsePerimeter;html=1;align=center;shadow=0;dashed=0;spacingTop=3;image;image=img/lib/active_directory/switch.svg;" parent="1" vertex="1">
          <mxGeometry x="1510" y="320" width="50" height="50" as="geometry" />
        </mxCell>
        <mxCell id="Me-h36C_1b-pKiEcUrvr-7" style="rounded=0;orthogonalLoop=1;jettySize=auto;html=1;exitX=0.25;exitY=1;exitDx=0;exitDy=0;fontSize=11;fontColor=#0000FF;endArrow=none;endFill=0;entryX=0.75;entryY=0;entryDx=0;entryDy=0;" parent="1" source="Me-h36C_1b-pKiEcUrvr-3" target="Me-h36C_1b-pKiEcUrvr-1" edge="1">
          <mxGeometry relative="1" as="geometry">
            <mxPoint x="1150" y="440" as="targetPoint" />
          </mxGeometry>
        </mxCell>
        <mxCell id="Me-h36C_1b-pKiEcUrvr-8" style="edgeStyle=none;rounded=0;orthogonalLoop=1;jettySize=auto;html=1;exitX=0.75;exitY=1;exitDx=0;exitDy=0;entryX=0.75;entryY=0;entryDx=0;entryDy=0;fontSize=11;fontColor=#0000FF;endArrow=none;endFill=0;" parent="1" source="Me-h36C_1b-pKiEcUrvr-3" target="Me-h36C_1b-pKiEcUrvr-4" edge="1">
          <mxGeometry relative="1" as="geometry" />
        </mxCell>
        <mxCell id="Me-h36C_1b-pKiEcUrvr-3" value="" style="aspect=fixed;perimeter=ellipsePerimeter;html=1;align=center;shadow=0;dashed=0;spacingTop=3;image;image=img/lib/active_directory/router.svg;" parent="1" vertex="1">
          <mxGeometry x="1190" y="350" width="50" height="38" as="geometry" />
        </mxCell>
        <mxCell id="Me-h36C_1b-pKiEcUrvr-4" value="" style="aspect=fixed;perimeter=ellipsePerimeter;html=1;align=center;shadow=0;dashed=0;spacingTop=3;image;image=img/lib/active_directory/laptop_client.svg;" parent="1" vertex="1">
          <mxGeometry x="1265" y="430" width="45" height="50" as="geometry" />
        </mxCell>
        <mxCell id="Me-h36C_1b-pKiEcUrvr-5" value="&lt;font color=&quot;#0000ff&quot; style=&quot;font-size: 11px;&quot;&gt;ip：192.168.1.1&lt;br style=&quot;font-size: 11px;&quot;&gt;网关：192.168.1.254&lt;br style=&quot;font-size: 11px;&quot;&gt;MAC：A&lt;/font&gt;" style="text;html=1;align=left;verticalAlign=middle;resizable=0;points=[];autosize=1;strokeColor=#0000FF;fillColor=none;" parent="1" vertex="1">
          <mxGeometry x="1040" y="480" width="140" height="60" as="geometry" />
        </mxCell>
        <mxCell id="Me-h36C_1b-pKiEcUrvr-6" value="&lt;font color=&quot;#0000ff&quot; style=&quot;font-size: 11px;&quot;&gt;ip：192.168.2.1&lt;br style=&quot;font-size: 11px;&quot;&gt;网关：192.168.2.254&lt;br style=&quot;font-size: 11px;&quot;&gt;MAC：D&lt;/font&gt;" style="text;html=1;align=left;verticalAlign=middle;resizable=0;points=[];autosize=1;strokeColor=#0000FF;fillColor=none;" parent="1" vertex="1">
          <mxGeometry x="1250" y="480" width="140" height="60" as="geometry" />
        </mxCell>
        <mxCell id="Me-h36C_1b-pKiEcUrvr-9" value="&lt;font color=&quot;#ff0000&quot;&gt;PC1&lt;/font&gt;" style="text;html=1;align=center;verticalAlign=middle;resizable=0;points=[];autosize=1;strokeColor=none;fillColor=none;fontSize=11;fontColor=#0000FF;" parent="1" vertex="1">
          <mxGeometry x="1090" y="430" width="50" height="30" as="geometry" />
        </mxCell>
        <mxCell id="Me-h36C_1b-pKiEcUrvr-10" value="&lt;font color=&quot;#ff0000&quot;&gt;PC2&lt;/font&gt;" style="text;html=1;align=center;verticalAlign=middle;resizable=0;points=[];autosize=1;strokeColor=none;fillColor=none;fontSize=11;fontColor=#0000FF;" parent="1" vertex="1">
          <mxGeometry x="1230" y="430" width="50" height="30" as="geometry" />
        </mxCell>
        <mxCell id="Me-h36C_1b-pKiEcUrvr-13" value="路由器0口的ip是192.168.1.254&lt;br&gt;路由器0口的MAC是B&lt;br&gt;路由器0口是PC1的网关" style="text;html=1;align=left;verticalAlign=middle;resizable=0;points=[];autosize=1;strokeColor=#0000FF;fillColor=none;fontSize=11;fontColor=#0000FF;" parent="1" vertex="1">
          <mxGeometry x="990" y="328" width="190" height="60" as="geometry" />
        </mxCell>
        <mxCell id="Me-h36C_1b-pKiEcUrvr-14" value="路由器1口的ip是192.168.2.254&lt;br&gt;路由器1口的MAC是C&lt;br&gt;路由器1口是PC2的网关" style="text;html=1;align=left;verticalAlign=middle;resizable=0;points=[];autosize=1;strokeColor=#0000FF;fillColor=none;fontSize=11;fontColor=#0000FF;" parent="1" vertex="1">
          <mxGeometry x="1250" y="328" width="190" height="60" as="geometry" />
        </mxCell>
        <mxCell id="Me-h36C_1b-pKiEcUrvr-15" value="路由器" style="text;html=1;align=center;verticalAlign=middle;resizable=0;points=[];autosize=1;strokeColor=none;fillColor=none;fontSize=11;fontColor=#FF0000;" parent="1" vertex="1">
          <mxGeometry x="1185" y="320" width="60" height="30" as="geometry" />
        </mxCell>
        <mxCell id="Me-h36C_1b-pKiEcUrvr-16" value="" style="shape=waypoint;sketch=0;size=6;pointerEvents=1;points=[];fillColor=none;resizable=0;rotatable=0;perimeter=centerPerimeter;snapToPoint=1;strokeColor=#FF0000;fontSize=11;fontColor=#FF0000;" parent="1" vertex="1">
          <mxGeometry x="1139" y="407" width="40" height="40" as="geometry" />
        </mxCell>
        <mxCell id="Me-h36C_1b-pKiEcUrvr-18" value="" style="shape=waypoint;sketch=0;size=6;pointerEvents=1;points=[];fillColor=none;resizable=0;rotatable=0;perimeter=centerPerimeter;snapToPoint=1;strokeColor=#FF0000;fontSize=11;fontColor=#FF0000;" parent="1" vertex="1">
          <mxGeometry x="1269" y="407" width="40" height="40" as="geometry" />
        </mxCell>
        <mxCell id="Me-h36C_1b-pKiEcUrvr-19" value="" style="shape=waypoint;sketch=0;size=6;pointerEvents=1;points=[];fillColor=none;resizable=0;rotatable=0;perimeter=centerPerimeter;snapToPoint=1;strokeColor=#FF0000;fontSize=11;fontColor=#FF0000;" parent="1" vertex="1">
          <mxGeometry x="1220" y="375" width="40" height="40" as="geometry" />
        </mxCell>
        <mxCell id="Me-h36C_1b-pKiEcUrvr-12" value="&lt;font color=&quot;#0000ff&quot;&gt;GE 0/0/1&lt;/font&gt;" style="text;html=1;align=center;verticalAlign=middle;resizable=0;points=[];autosize=1;strokeColor=none;fillColor=none;fontSize=11;fontColor=#FF0000;" parent="1" vertex="1">
          <mxGeometry x="1239" y="380" width="70" height="30" as="geometry" />
        </mxCell>
        <mxCell id="Me-h36C_1b-pKiEcUrvr-20" value="" style="shape=waypoint;sketch=0;size=6;pointerEvents=1;points=[];fillColor=none;resizable=0;rotatable=0;perimeter=centerPerimeter;snapToPoint=1;strokeColor=#FF0000;fontSize=11;fontColor=#FF0000;" parent="1" vertex="1">
          <mxGeometry x="1175" y="375" width="40" height="40" as="geometry" />
        </mxCell>
        <mxCell id="Me-h36C_1b-pKiEcUrvr-11" value="&lt;font color=&quot;#0000ff&quot;&gt;GE 0/0/0&lt;/font&gt;" style="text;html=1;align=center;verticalAlign=middle;resizable=0;points=[];autosize=1;strokeColor=none;fillColor=none;fontSize=11;fontColor=#FF0000;" parent="1" vertex="1">
          <mxGeometry x="1120" y="380" width="70" height="30" as="geometry" />
        </mxCell>
        <mxCell id="ODc4Azz3P6jy1Ntk55OS-3" style="edgeStyle=orthogonalEdgeStyle;rounded=0;orthogonalLoop=1;jettySize=auto;html=1;exitX=1;exitY=0.5;exitDx=0;exitDy=0;endArrow=open;endFill=0;entryX=0;entryY=0.5;entryDx=0;entryDy=0;" parent="1" source="ODc4Azz3P6jy1Ntk55OS-1" target="ODc4Azz3P6jy1Ntk55OS-2" edge="1">
          <mxGeometry relative="1" as="geometry">
            <mxPoint x="1650" y="257.5" as="targetPoint" />
          </mxGeometry>
        </mxCell>
        <mxCell id="ODc4Azz3P6jy1Ntk55OS-1" value="&lt;font color=&quot;#0000ff&quot;&gt;User A&lt;/font&gt;" style="rounded=0;whiteSpace=wrap;html=1;" parent="1" vertex="1">
          <mxGeometry x="1510" y="242.5" width="50" height="30" as="geometry" />
        </mxCell>
        <mxCell id="ODc4Azz3P6jy1Ntk55OS-2" value="&lt;font color=&quot;#0000ff&quot;&gt;User B&lt;/font&gt;" style="rounded=0;whiteSpace=wrap;html=1;" parent="1" vertex="1">
          <mxGeometry x="1680" y="242.5" width="50" height="30" as="geometry" />
        </mxCell>
        <mxCell id="ODc4Azz3P6jy1Ntk55OS-4" value="send msg" style="text;html=1;align=center;verticalAlign=middle;resizable=0;points=[];autosize=1;strokeColor=none;fillColor=none;fontColor=#FF0000;" parent="1" vertex="1">
          <mxGeometry x="1510" y="218.5" width="80" height="30" as="geometry" />
        </mxCell>
        <mxCell id="ODc4Azz3P6jy1Ntk55OS-5" value="online" style="text;html=1;align=center;verticalAlign=middle;resizable=0;points=[];autosize=1;strokeColor=none;fillColor=none;fontColor=#FF0000;" parent="1" vertex="1">
          <mxGeometry x="1629" y="241.5" width="60" height="30" as="geometry" />
        </mxCell>
        <mxCell id="ODc4Azz3P6jy1Ntk55OS-7" value="" style="endArrow=open;html=1;rounded=0;fontColor=#FF0000;endFill=0;" parent="1" edge="1">
          <mxGeometry width="50" height="50" relative="1" as="geometry">
            <mxPoint x="1629.62" y="257.5" as="sourcePoint" />
            <mxPoint x="1630" y="212.5" as="targetPoint" />
          </mxGeometry>
        </mxCell>
        <mxCell id="ODc4Azz3P6jy1Ntk55OS-11" style="edgeStyle=orthogonalEdgeStyle;rounded=0;orthogonalLoop=1;jettySize=auto;html=1;exitX=1;exitY=0.5;exitDx=0;exitDy=0;entryX=0.5;entryY=0;entryDx=0;entryDy=0;fontColor=#FF0000;endArrow=open;endFill=0;" parent="1" source="ODc4Azz3P6jy1Ntk55OS-9" target="ODc4Azz3P6jy1Ntk55OS-2" edge="1">
          <mxGeometry relative="1" as="geometry" />
        </mxCell>
        <mxCell id="ODc4Azz3P6jy1Ntk55OS-9" value="&lt;font color=&quot;#0000ff&quot;&gt;database&lt;/font&gt;" style="rounded=0;whiteSpace=wrap;html=1;fontColor=#FF0000;" parent="1" vertex="1">
          <mxGeometry x="1600" y="182.5" width="60" height="30" as="geometry" />
        </mxCell>
        <mxCell id="ODc4Azz3P6jy1Ntk55OS-10" value="&lt;font color=&quot;#ff0000&quot;&gt;offline&lt;/font&gt;" style="text;html=1;align=center;verticalAlign=middle;resizable=0;points=[];autosize=1;strokeColor=none;fillColor=none;fontColor=#0000FF;horizontal=1;labelPosition=center;verticalLabelPosition=middle;fontStyle=0;rotation=0;" parent="1" vertex="1">
          <mxGeometry x="1610" y="198.5" width="40" height="50" as="geometry" />
        </mxCell>
        <mxCell id="zlRryZ_MGgyLcwW-DXxL-8" value="用户名/密码登录" style="rounded=0;whiteSpace=wrap;html=1;fillColor=#ffe6cc;strokeColor=#d79b00;fontSize=16;" parent="1" vertex="1">
          <mxGeometry x="70" y="860" width="140" height="110" as="geometry" />
        </mxCell>
        <mxCell id="zlRryZ_MGgyLcwW-DXxL-9" value="邮箱/验证码登录" style="rounded=0;whiteSpace=wrap;html=1;fillColor=#ffe6cc;strokeColor=#d79b00;fontSize=16;" parent="1" vertex="1">
          <mxGeometry x="70" y="990" width="140" height="100" as="geometry" />
        </mxCell>
        <mxCell id="zlRryZ_MGgyLcwW-DXxL-50" value="" style="rounded=0;whiteSpace=wrap;html=1;shadow=1;fontSize=24;fillColor=#cdeb8b;strokeColor=#36393d;" parent="1" vertex="1">
          <mxGeometry x="410" y="1030" width="430" height="250" as="geometry" />
        </mxCell>
        <mxCell id="zlRryZ_MGgyLcwW-DXxL-12" value="采购审批" style="rounded=0;whiteSpace=wrap;html=1;fillColor=#fff2cc;strokeColor=#d6b656;fontSize=16;" parent="1" vertex="1">
          <mxGeometry x="424" y="1050" width="120" height="60" as="geometry" />
        </mxCell>
        <mxCell id="zlRryZ_MGgyLcwW-DXxL-14" value="入库审批" style="rounded=0;whiteSpace=wrap;html=1;fillColor=#fff2cc;strokeColor=#d6b656;fontSize=16;" parent="1" vertex="1">
          <mxGeometry x="564" y="1050" width="120" height="60" as="geometry" />
        </mxCell>
        <mxCell id="zlRryZ_MGgyLcwW-DXxL-15" value="退货审批" style="rounded=0;whiteSpace=wrap;html=1;fillColor=#fff2cc;strokeColor=#d6b656;fontSize=16;" parent="1" vertex="1">
          <mxGeometry x="424" y="1190" width="120" height="60" as="geometry" />
        </mxCell>
        <mxCell id="zlRryZ_MGgyLcwW-DXxL-16" value="销售审批" style="rounded=0;whiteSpace=wrap;html=1;fillColor=#fff2cc;strokeColor=#d6b656;fontSize=16;" parent="1" vertex="1">
          <mxGeometry x="424" y="1120" width="120" height="60" as="geometry" />
        </mxCell>
        <mxCell id="zlRryZ_MGgyLcwW-DXxL-17" value="出库审批" style="rounded=0;whiteSpace=wrap;html=1;fillColor=#fff2cc;strokeColor=#d6b656;fontSize=16;" parent="1" vertex="1">
          <mxGeometry x="564" y="1120" width="120" height="60" as="geometry" />
        </mxCell>
        <mxCell id="zlRryZ_MGgyLcwW-DXxL-18" value="退货审批" style="rounded=0;whiteSpace=wrap;html=1;fillColor=#fff2cc;strokeColor=#d6b656;fontSize=16;" parent="1" vertex="1">
          <mxGeometry x="704" y="1050" width="120" height="60" as="geometry" />
        </mxCell>
        <mxCell id="zlRryZ_MGgyLcwW-DXxL-19" value="退库审批" style="rounded=0;whiteSpace=wrap;html=1;fillColor=#fff2cc;strokeColor=#d6b656;fontSize=16;" parent="1" vertex="1">
          <mxGeometry x="704" y="1120" width="120" height="60" as="geometry" />
        </mxCell>
        <mxCell id="zlRryZ_MGgyLcwW-DXxL-48" value="" style="rounded=0;whiteSpace=wrap;html=1;shadow=1;fontSize=24;fillColor=#fad9d5;strokeColor=#ae4132;" parent="1" vertex="1">
          <mxGeometry x="860" y="1190" width="280" height="100" as="geometry" />
        </mxCell>
        <mxCell id="zlRryZ_MGgyLcwW-DXxL-25" value="财务" style="rounded=0;whiteSpace=wrap;html=1;fillColor=#fff2cc;strokeColor=#d6b656;fontSize=16;" parent="1" vertex="1">
          <mxGeometry x="890" y="1200" width="120" height="60" as="geometry" />
        </mxCell>
        <mxCell id="zlRryZ_MGgyLcwW-DXxL-33" value="" style="group" parent="1" vertex="1" connectable="0">
          <mxGeometry x="769" y="770" width="411" height="180" as="geometry" />
        </mxCell>
        <mxCell id="zlRryZ_MGgyLcwW-DXxL-39" value="" style="rounded=0;whiteSpace=wrap;html=1;shadow=1;fontSize=24;fillColor=#e1d5e7;strokeColor=#9673a6;" parent="zlRryZ_MGgyLcwW-DXxL-33" vertex="1">
          <mxGeometry x="-20" y="-20" width="340" height="180" as="geometry" />
        </mxCell>
        <mxCell id="zlRryZ_MGgyLcwW-DXxL-27" value="入库" style="rounded=0;whiteSpace=wrap;html=1;fillColor=#fff2cc;strokeColor=#d6b656;fontSize=16;" parent="zlRryZ_MGgyLcwW-DXxL-33" vertex="1">
          <mxGeometry width="120" height="60" as="geometry" />
        </mxCell>
        <mxCell id="zlRryZ_MGgyLcwW-DXxL-28" value="出库" style="rounded=0;whiteSpace=wrap;html=1;fillColor=#fff2cc;strokeColor=#d6b656;fontSize=16;" parent="zlRryZ_MGgyLcwW-DXxL-33" vertex="1">
          <mxGeometry x="141" width="120" height="60" as="geometry" />
        </mxCell>
        <mxCell id="zlRryZ_MGgyLcwW-DXxL-29" value="退货" style="rounded=0;whiteSpace=wrap;html=1;fillColor=#fff2cc;strokeColor=#d6b656;fontSize=16;" parent="zlRryZ_MGgyLcwW-DXxL-33" vertex="1">
          <mxGeometry x="1" y="80" width="120" height="60" as="geometry" />
        </mxCell>
        <mxCell id="zlRryZ_MGgyLcwW-DXxL-31" value="退库" style="rounded=0;whiteSpace=wrap;html=1;fillColor=#fff2cc;strokeColor=#d6b656;fontSize=16;" parent="zlRryZ_MGgyLcwW-DXxL-33" vertex="1">
          <mxGeometry x="141" y="80" width="120" height="60" as="geometry" />
        </mxCell>
        <mxCell id="zlRryZ_MGgyLcwW-DXxL-40" value="仓库管理员" style="text;html=1;align=center;verticalAlign=middle;resizable=0;points=[];autosize=1;strokeColor=none;fillColor=none;fontSize=24;fontColor=#0000FF;" parent="zlRryZ_MGgyLcwW-DXxL-33" vertex="1">
          <mxGeometry x="271" y="50" width="140" height="40" as="geometry" />
        </mxCell>
        <mxCell id="zlRryZ_MGgyLcwW-DXxL-35" value="" style="group" parent="1" vertex="1" connectable="0">
          <mxGeometry x="424" y="700" width="280" height="310" as="geometry" />
        </mxCell>
        <mxCell id="zlRryZ_MGgyLcwW-DXxL-36" value="" style="rounded=0;whiteSpace=wrap;html=1;fontSize=16;shadow=1;fillColor=#dae8fc;strokeColor=#6c8ebf;" parent="zlRryZ_MGgyLcwW-DXxL-35" vertex="1">
          <mxGeometry x="-20" y="-10" width="300" height="320" as="geometry" />
        </mxCell>
        <mxCell id="zlRryZ_MGgyLcwW-DXxL-5" value="用户管理" style="rounded=0;whiteSpace=wrap;html=1;fillColor=#fff2cc;strokeColor=#d6b656;fontSize=16;" parent="zlRryZ_MGgyLcwW-DXxL-35" vertex="1">
          <mxGeometry y="140" width="120" height="60" as="geometry" />
        </mxCell>
        <mxCell id="zlRryZ_MGgyLcwW-DXxL-6" value="角色管理" style="rounded=0;whiteSpace=wrap;html=1;fillColor=#fff2cc;strokeColor=#d6b656;fontSize=16;" parent="zlRryZ_MGgyLcwW-DXxL-35" vertex="1">
          <mxGeometry y="70" width="120" height="60" as="geometry" />
        </mxCell>
        <mxCell id="zlRryZ_MGgyLcwW-DXxL-7" value="客户管理" style="rounded=0;whiteSpace=wrap;html=1;fillColor=#fff2cc;strokeColor=#d6b656;fontSize=16;" parent="zlRryZ_MGgyLcwW-DXxL-35" vertex="1">
          <mxGeometry y="210" width="120" height="60" as="geometry" />
        </mxCell>
        <mxCell id="zlRryZ_MGgyLcwW-DXxL-10" value="工作台" style="rounded=0;whiteSpace=wrap;html=1;fillColor=#fff2cc;strokeColor=#d6b656;fontSize=16;" parent="zlRryZ_MGgyLcwW-DXxL-35" vertex="1">
          <mxGeometry width="120" height="60" as="geometry" />
        </mxCell>
        <mxCell id="zlRryZ_MGgyLcwW-DXxL-34" value="" style="group" parent="zlRryZ_MGgyLcwW-DXxL-35" vertex="1" connectable="0">
          <mxGeometry x="136" y="30" width="120" height="200" as="geometry" />
        </mxCell>
        <mxCell id="zlRryZ_MGgyLcwW-DXxL-1" value="供应商管理" style="rounded=0;whiteSpace=wrap;html=1;fillColor=#f8cecc;strokeColor=#b85450;fontSize=16;" parent="zlRryZ_MGgyLcwW-DXxL-34" vertex="1">
          <mxGeometry width="120" height="60" as="geometry" />
        </mxCell>
        <mxCell id="zlRryZ_MGgyLcwW-DXxL-2" value="物品信息" style="rounded=0;whiteSpace=wrap;html=1;fillColor=#f8cecc;strokeColor=#b85450;fontSize=16;" parent="zlRryZ_MGgyLcwW-DXxL-34" vertex="1">
          <mxGeometry y="70" width="120" height="60" as="geometry" />
        </mxCell>
        <mxCell id="zlRryZ_MGgyLcwW-DXxL-3" value="仓库信息" style="rounded=0;whiteSpace=wrap;html=1;fillColor=#f8cecc;strokeColor=#b85450;fontSize=16;" parent="zlRryZ_MGgyLcwW-DXxL-34" vertex="1">
          <mxGeometry y="140" width="120" height="60" as="geometry" />
        </mxCell>
        <mxCell id="zlRryZ_MGgyLcwW-DXxL-37" value="&lt;font style=&quot;font-size: 24px;&quot;&gt;基本信息&lt;/font&gt;" style="text;html=1;align=center;verticalAlign=middle;resizable=0;points=[];autosize=1;strokeColor=none;fillColor=none;fontSize=16;fontColor=#0000FF;" parent="zlRryZ_MGgyLcwW-DXxL-35" vertex="1">
          <mxGeometry x="126" y="-10" width="120" height="40" as="geometry" />
        </mxCell>
        <mxCell id="zlRryZ_MGgyLcwW-DXxL-64" value="个人信息" style="rounded=0;whiteSpace=wrap;html=1;fillColor=#f8cecc;strokeColor=#b85450;fontSize=16;" parent="zlRryZ_MGgyLcwW-DXxL-35" vertex="1">
          <mxGeometry x="136" y="240" width="120" height="60" as="geometry" />
        </mxCell>
        <mxCell id="zlRryZ_MGgyLcwW-DXxL-46" value="" style="group" parent="1" vertex="1" connectable="0">
          <mxGeometry x="880" y="1090" width="275" height="80" as="geometry" />
        </mxCell>
        <mxCell id="zlRryZ_MGgyLcwW-DXxL-43" value="" style="rounded=0;whiteSpace=wrap;html=1;shadow=1;fontSize=24;fillColor=#fad7ac;strokeColor=#b46504;" parent="zlRryZ_MGgyLcwW-DXxL-46" vertex="1">
          <mxGeometry width="275" height="80" as="geometry" />
        </mxCell>
        <mxCell id="zlRryZ_MGgyLcwW-DXxL-24" value="采购" style="rounded=0;whiteSpace=wrap;html=1;fillColor=#fff2cc;strokeColor=#d6b656;fontSize=16;" parent="zlRryZ_MGgyLcwW-DXxL-46" vertex="1">
          <mxGeometry x="15" y="10" width="120" height="60" as="geometry" />
        </mxCell>
        <mxCell id="zlRryZ_MGgyLcwW-DXxL-44" value="采购员" style="text;html=1;align=center;verticalAlign=middle;resizable=0;points=[];autosize=1;strokeColor=none;fillColor=none;fontSize=24;fontColor=#0000FF;" parent="zlRryZ_MGgyLcwW-DXxL-46" vertex="1">
          <mxGeometry x="155" y="20" width="100" height="40" as="geometry" />
        </mxCell>
        <mxCell id="zlRryZ_MGgyLcwW-DXxL-47" value="" style="group" parent="1" vertex="1" connectable="0">
          <mxGeometry x="850" y="950" width="330" height="100" as="geometry" />
        </mxCell>
        <mxCell id="zlRryZ_MGgyLcwW-DXxL-41" value="" style="rounded=0;whiteSpace=wrap;html=1;shadow=1;fontSize=24;fillColor=#b1ddf0;strokeColor=#10739e;" parent="zlRryZ_MGgyLcwW-DXxL-47" vertex="1">
          <mxGeometry width="330" height="100" as="geometry" />
        </mxCell>
        <mxCell id="zlRryZ_MGgyLcwW-DXxL-22" value="销售" style="rounded=0;whiteSpace=wrap;html=1;fillColor=#fff2cc;strokeColor=#d6b656;fontSize=16;" parent="zlRryZ_MGgyLcwW-DXxL-47" vertex="1">
          <mxGeometry x="28.285714285714285" y="10" width="113.14285714285714" height="60" as="geometry" />
        </mxCell>
        <mxCell id="zlRryZ_MGgyLcwW-DXxL-26" value="退货" style="rounded=0;whiteSpace=wrap;html=1;fillColor=#fff2cc;strokeColor=#d6b656;fontSize=16;" parent="zlRryZ_MGgyLcwW-DXxL-47" vertex="1">
          <mxGeometry x="160.28571428571428" y="10" width="113.14285714285714" height="60" as="geometry" />
        </mxCell>
        <mxCell id="zlRryZ_MGgyLcwW-DXxL-42" value="销售员" style="text;html=1;align=center;verticalAlign=middle;resizable=0;points=[];autosize=1;strokeColor=none;fillColor=none;fontSize=24;fontColor=#0000FF;" parent="zlRryZ_MGgyLcwW-DXxL-47" vertex="1">
          <mxGeometry x="225.34285714285716" y="60" width="100" height="40" as="geometry" />
        </mxCell>
        <mxCell id="zlRryZ_MGgyLcwW-DXxL-49" value="财务员" style="text;html=1;align=center;verticalAlign=middle;resizable=0;points=[];autosize=1;strokeColor=none;fillColor=none;fontSize=24;fontColor=#0000FF;" parent="1" vertex="1">
          <mxGeometry x="1020" y="1220" width="100" height="40" as="geometry" />
        </mxCell>
        <mxCell id="zlRryZ_MGgyLcwW-DXxL-51" value="审批员" style="text;html=1;align=center;verticalAlign=middle;resizable=0;points=[];autosize=1;strokeColor=none;fillColor=none;fontSize=24;fontColor=#0000FF;" parent="1" vertex="1">
          <mxGeometry x="660" y="1210" width="100" height="40" as="geometry" />
        </mxCell>
        <mxCell id="zlRryZ_MGgyLcwW-DXxL-70" value="" style="html=1;shadow=0;dashed=0;align=center;verticalAlign=middle;shape=mxgraph.arrows2.arrow;dy=0.6;dx=40;notch=0;fontSize=24;fillColor=#cdeb8b;strokeColor=#36393d;" parent="1" vertex="1">
          <mxGeometry x="220" y="950" width="170" height="70" as="geometry" />
        </mxCell>
        <mxCell id="pQuwFU1k6SQbz3q5AGOL-4" style="edgeStyle=orthogonalEdgeStyle;rounded=0;orthogonalLoop=1;jettySize=auto;html=1;exitX=1;exitY=0.5;exitDx=0;exitDy=0;" parent="1" source="pQuwFU1k6SQbz3q5AGOL-1" edge="1">
          <mxGeometry relative="1" as="geometry">
            <mxPoint x="1320" y="122.5" as="targetPoint" />
          </mxGeometry>
        </mxCell>
        <mxCell id="pQuwFU1k6SQbz3q5AGOL-1" value="审核" style="rounded=0;whiteSpace=wrap;html=1;" parent="1" vertex="1">
          <mxGeometry x="1190" y="102.5" width="70" height="40" as="geometry" />
        </mxCell>
        <mxCell id="pQuwFU1k6SQbz3q5AGOL-2" value="" style="endArrow=classic;html=1;rounded=0;entryX=0;entryY=0.5;entryDx=0;entryDy=0;" parent="1" source="pQuwFU1k6SQbz3q5AGOL-14" target="pQuwFU1k6SQbz3q5AGOL-1" edge="1">
          <mxGeometry width="50" height="50" relative="1" as="geometry">
            <mxPoint x="1120" y="122.5" as="sourcePoint" />
            <mxPoint x="1160" y="102.5" as="targetPoint" />
          </mxGeometry>
        </mxCell>
        <mxCell id="pQuwFU1k6SQbz3q5AGOL-3" value="添加新闻" style="text;html=1;align=center;verticalAlign=middle;resizable=0;points=[];autosize=1;strokeColor=none;fillColor=none;rotation=-20;" parent="1" vertex="1">
          <mxGeometry x="1100" y="112.5" width="70" height="30" as="geometry" />
        </mxCell>
        <mxCell id="pQuwFU1k6SQbz3q5AGOL-5" value="审核通过" style="text;html=1;align=center;verticalAlign=middle;resizable=0;points=[];autosize=1;strokeColor=none;fillColor=none;" parent="1" vertex="1">
          <mxGeometry x="1250" y="117.5" width="70" height="30" as="geometry" />
        </mxCell>
        <mxCell id="pQuwFU1k6SQbz3q5AGOL-15" style="edgeStyle=orthogonalEdgeStyle;rounded=0;orthogonalLoop=1;jettySize=auto;html=1;exitX=1;exitY=0.5;exitDx=0;exitDy=0;fontSize=13;entryX=-0.053;entryY=0.506;entryDx=0;entryDy=0;entryPerimeter=0;" parent="1" source="pQuwFU1k6SQbz3q5AGOL-6" target="pQuwFU1k6SQbz3q5AGOL-16" edge="1">
          <mxGeometry relative="1" as="geometry">
            <mxPoint x="1440" y="122.38888888888869" as="targetPoint" />
          </mxGeometry>
        </mxCell>
        <mxCell id="pQuwFU1k6SQbz3q5AGOL-6" value="发布" style="rounded=0;whiteSpace=wrap;html=1;" parent="1" vertex="1">
          <mxGeometry x="1320" y="102.5" width="70" height="40" as="geometry" />
        </mxCell>
        <mxCell id="pQuwFU1k6SQbz3q5AGOL-8" style="edgeStyle=orthogonalEdgeStyle;rounded=0;orthogonalLoop=1;jettySize=auto;html=1;exitX=1;exitY=0.5;exitDx=0;exitDy=0;" parent="1" source="pQuwFU1k6SQbz3q5AGOL-9" edge="1">
          <mxGeometry relative="1" as="geometry">
            <mxPoint x="1320" y="192.5" as="targetPoint" />
          </mxGeometry>
        </mxCell>
        <mxCell id="pQuwFU1k6SQbz3q5AGOL-9" value="审核" style="rounded=0;whiteSpace=wrap;html=1;" parent="1" vertex="1">
          <mxGeometry x="1190" y="172.5" width="70" height="40" as="geometry" />
        </mxCell>
        <mxCell id="pQuwFU1k6SQbz3q5AGOL-10" value="" style="endArrow=classic;html=1;rounded=0;entryX=0;entryY=0.5;entryDx=0;entryDy=0;" parent="1" source="pQuwFU1k6SQbz3q5AGOL-14" target="pQuwFU1k6SQbz3q5AGOL-9" edge="1">
          <mxGeometry width="50" height="50" relative="1" as="geometry">
            <mxPoint x="1120" y="192.5" as="sourcePoint" />
            <mxPoint x="1160" y="172.5" as="targetPoint" />
          </mxGeometry>
        </mxCell>
        <mxCell id="pQuwFU1k6SQbz3q5AGOL-11" value="删除新闻" style="text;html=1;align=center;verticalAlign=middle;resizable=0;points=[];autosize=1;strokeColor=none;fillColor=none;rotation=20;" parent="1" vertex="1">
          <mxGeometry x="1100" y="172.5" width="70" height="30" as="geometry" />
        </mxCell>
        <mxCell id="pQuwFU1k6SQbz3q5AGOL-12" value="审核通过" style="text;html=1;align=center;verticalAlign=middle;resizable=0;points=[];autosize=1;strokeColor=none;fillColor=none;" parent="1" vertex="1">
          <mxGeometry x="1250" y="167.5" width="70" height="30" as="geometry" />
        </mxCell>
        <mxCell id="pQuwFU1k6SQbz3q5AGOL-13" value="删除" style="rounded=0;whiteSpace=wrap;html=1;" parent="1" vertex="1">
          <mxGeometry x="1320" y="172.5" width="70" height="40" as="geometry" />
        </mxCell>
        <mxCell id="pQuwFU1k6SQbz3q5AGOL-14" value="" style="shape=waypoint;sketch=0;size=6;pointerEvents=1;points=[];fillColor=none;resizable=0;rotatable=0;perimeter=centerPerimeter;snapToPoint=1;fontSize=13;strokeWidth=4;" parent="1" vertex="1">
          <mxGeometry x="1080" y="137.5" width="40" height="40" as="geometry" />
        </mxCell>
        <mxCell id="pQuwFU1k6SQbz3q5AGOL-16" value="" style="shape=waypoint;sketch=0;size=6;pointerEvents=1;points=[];fillColor=none;resizable=0;rotatable=0;perimeter=centerPerimeter;snapToPoint=1;strokeWidth=4;fontSize=13;" parent="1" vertex="1">
          <mxGeometry x="1440" y="102.5" width="40" height="40" as="geometry" />
        </mxCell>
        <mxCell id="pQuwFU1k6SQbz3q5AGOL-18" value="保留为草稿" style="rounded=0;whiteSpace=wrap;html=1;" parent="1" vertex="1">
          <mxGeometry x="1320" y="37.5" width="70" height="40" as="geometry" />
        </mxCell>
        <mxCell id="pQuwFU1k6SQbz3q5AGOL-19" value="" style="endArrow=classic;html=1;rounded=0;fontSize=13;entryX=0;entryY=0.5;entryDx=0;entryDy=0;exitX=1;exitY=0.5;exitDx=0;exitDy=0;" parent="1" source="pQuwFU1k6SQbz3q5AGOL-1" target="pQuwFU1k6SQbz3q5AGOL-18" edge="1">
          <mxGeometry width="50" height="50" relative="1" as="geometry">
            <mxPoint x="1200" y="47.5" as="sourcePoint" />
            <mxPoint x="1290" y="47.5" as="targetPoint" />
          </mxGeometry>
        </mxCell>
        <mxCell id="pQuwFU1k6SQbz3q5AGOL-20" value="审核失败" style="text;html=1;align=center;verticalAlign=middle;resizable=0;points=[];autosize=1;strokeColor=none;fillColor=none;fontSize=13;rotation=-45;" parent="1" vertex="1">
          <mxGeometry x="1240" y="62.5" width="80" height="30" as="geometry" />
        </mxCell>
        <mxCell id="pQuwFU1k6SQbz3q5AGOL-21" style="edgeStyle=orthogonalEdgeStyle;rounded=0;orthogonalLoop=1;jettySize=auto;html=1;exitX=1;exitY=0.5;exitDx=0;exitDy=0;fontSize=13;entryX=-0.053;entryY=0.506;entryDx=0;entryDy=0;entryPerimeter=0;" parent="1" target="pQuwFU1k6SQbz3q5AGOL-22" edge="1">
          <mxGeometry relative="1" as="geometry">
            <mxPoint x="1440" y="57.38888888888869" as="targetPoint" />
            <mxPoint x="1390" y="57.5" as="sourcePoint" />
          </mxGeometry>
        </mxCell>
        <mxCell id="pQuwFU1k6SQbz3q5AGOL-22" value="" style="shape=waypoint;sketch=0;size=6;pointerEvents=1;points=[];fillColor=none;resizable=0;rotatable=0;perimeter=centerPerimeter;snapToPoint=1;strokeWidth=4;fontSize=13;" parent="1" vertex="1">
          <mxGeometry x="1440" y="37.5" width="40" height="40" as="geometry" />
        </mxCell>
        <mxCell id="pQuwFU1k6SQbz3q5AGOL-23" style="edgeStyle=orthogonalEdgeStyle;rounded=0;orthogonalLoop=1;jettySize=auto;html=1;exitX=1;exitY=0.5;exitDx=0;exitDy=0;fontSize=13;entryX=-0.053;entryY=0.506;entryDx=0;entryDy=0;entryPerimeter=0;" parent="1" target="pQuwFU1k6SQbz3q5AGOL-24" edge="1">
          <mxGeometry relative="1" as="geometry">
            <mxPoint x="1440" y="192.3888888888887" as="targetPoint" />
            <mxPoint x="1390" y="192.5" as="sourcePoint" />
          </mxGeometry>
        </mxCell>
        <mxCell id="pQuwFU1k6SQbz3q5AGOL-24" value="" style="shape=waypoint;sketch=0;size=6;pointerEvents=1;points=[];fillColor=none;resizable=0;rotatable=0;perimeter=centerPerimeter;snapToPoint=1;strokeWidth=4;fontSize=13;" parent="1" vertex="1">
          <mxGeometry x="1440" y="172.5" width="40" height="40" as="geometry" />
        </mxCell>
        <mxCell id="pQuwFU1k6SQbz3q5AGOL-25" style="rounded=0;orthogonalLoop=1;jettySize=auto;html=1;exitX=1;exitY=0.5;exitDx=0;exitDy=0;" parent="1" source="pQuwFU1k6SQbz3q5AGOL-9" edge="1">
          <mxGeometry relative="1" as="geometry">
            <mxPoint x="1320" y="252.5" as="targetPoint" />
            <mxPoint x="1260" y="252.5" as="sourcePoint" />
          </mxGeometry>
        </mxCell>
        <mxCell id="pQuwFU1k6SQbz3q5AGOL-26" value="审核失败" style="text;html=1;align=center;verticalAlign=middle;resizable=0;points=[];autosize=1;strokeColor=none;fillColor=none;rotation=45;" parent="1" vertex="1">
          <mxGeometry x="1245" y="227.5" width="70" height="30" as="geometry" />
        </mxCell>
        <mxCell id="pQuwFU1k6SQbz3q5AGOL-27" value="依然展示" style="rounded=0;whiteSpace=wrap;html=1;" parent="1" vertex="1">
          <mxGeometry x="1320" y="232.5" width="70" height="40" as="geometry" />
        </mxCell>
        <mxCell id="pQuwFU1k6SQbz3q5AGOL-28" style="edgeStyle=orthogonalEdgeStyle;rounded=0;orthogonalLoop=1;jettySize=auto;html=1;exitX=1;exitY=0.5;exitDx=0;exitDy=0;fontSize=13;entryX=-0.053;entryY=0.506;entryDx=0;entryDy=0;entryPerimeter=0;" parent="1" target="pQuwFU1k6SQbz3q5AGOL-29" edge="1">
          <mxGeometry relative="1" as="geometry">
            <mxPoint x="1440" y="252.3888888888887" as="targetPoint" />
            <mxPoint x="1390" y="252.5" as="sourcePoint" />
          </mxGeometry>
        </mxCell>
        <mxCell id="pQuwFU1k6SQbz3q5AGOL-29" value="" style="shape=waypoint;sketch=0;size=6;pointerEvents=1;points=[];fillColor=none;resizable=0;rotatable=0;perimeter=centerPerimeter;snapToPoint=1;strokeWidth=4;fontSize=13;" parent="1" vertex="1">
          <mxGeometry x="1440" y="232.5" width="40" height="40" as="geometry" />
        </mxCell>
        <mxCell id="rNse2086BjmlesnSCy4A-2" value="" style="shape=umlLifeline;participant=umlActor;perimeter=lifelinePerimeter;whiteSpace=wrap;html=1;container=1;collapsible=0;recursiveResize=0;verticalAlign=top;spacingTop=36;outlineConnect=0;size=40;" parent="1" vertex="1">
          <mxGeometry x="505" y="1770" width="20" height="340" as="geometry" />
        </mxCell>
        <mxCell id="rNse2086BjmlesnSCy4A-3" value="&amp;lt;&amp;lt;userinteracton&amp;gt;&amp;gt;&lt;br&gt;:Customer Interaction" style="shape=umlLifeline;perimeter=lifelinePerimeter;whiteSpace=wrap;html=1;container=1;collapsible=0;recursiveResize=0;outlineConnect=0;" parent="1" vertex="1">
          <mxGeometry x="575" y="1770" width="100" height="340" as="geometry" />
        </mxCell>
        <mxCell id="rNse2086BjmlesnSCy4A-21" value="" style="endArrow=open;endFill=1;endSize=12;html=1;rounded=0;" parent="rNse2086BjmlesnSCy4A-3" source="rNse2086BjmlesnSCy4A-3" edge="1">
          <mxGeometry width="160" relative="1" as="geometry">
            <mxPoint x="45" y="185" as="sourcePoint" />
            <mxPoint x="-60.71" y="185" as="targetPoint" />
          </mxGeometry>
        </mxCell>
        <mxCell id="rNse2086BjmlesnSCy4A-22" value="" style="endArrow=open;endFill=1;endSize=12;html=1;rounded=0;" parent="rNse2086BjmlesnSCy4A-3" edge="1">
          <mxGeometry width="160" relative="1" as="geometry">
            <mxPoint x="-58.110000000000014" y="219.1300000000001" as="sourcePoint" />
            <mxPoint x="52.10000000000002" y="219.1300000000001" as="targetPoint" />
          </mxGeometry>
        </mxCell>
        <mxCell id="rNse2086BjmlesnSCy4A-23" value="M4A.3:&lt;br&gt;Account Input" style="text;html=1;align=center;verticalAlign=middle;resizable=0;points=[];autosize=1;strokeColor=none;fillColor=none;" parent="rNse2086BjmlesnSCy4A-3" vertex="1">
          <mxGeometry x="-48.110000000000014" y="180" width="100" height="40" as="geometry" />
        </mxCell>
        <mxCell id="rNse2086BjmlesnSCy4A-39" value="" style="group" parent="rNse2086BjmlesnSCy4A-3" vertex="1" connectable="0">
          <mxGeometry x="-88" y="285" width="150" height="35" as="geometry" />
        </mxCell>
        <mxCell id="rNse2086BjmlesnSCy4A-40" value="M4A.8: &lt;br&gt;Customer Output" style="text;html=1;align=center;verticalAlign=middle;resizable=0;points=[];autosize=1;strokeColor=none;fillColor=none;" parent="rNse2086BjmlesnSCy4A-39" vertex="1">
          <mxGeometry x="33" y="-5" width="110" height="40" as="geometry" />
        </mxCell>
        <mxCell id="rNse2086BjmlesnSCy4A-41" value="" style="endArrow=open;endFill=1;endSize=12;html=1;rounded=0;" parent="rNse2086BjmlesnSCy4A-39" edge="1">
          <mxGeometry width="160" relative="1" as="geometry">
            <mxPoint x="137" y="30" as="sourcePoint" />
            <mxPoint x="28" y="30" as="targetPoint" />
          </mxGeometry>
        </mxCell>
        <mxCell id="rNse2086BjmlesnSCy4A-4" value="&amp;lt;&amp;lt;coordinator&amp;gt;&amp;gt;&lt;br&gt;aCustomer&lt;br&gt;Coordinator" style="shape=umlLifeline;perimeter=lifelinePerimeter;whiteSpace=wrap;html=1;container=1;collapsible=0;recursiveResize=0;outlineConnect=0;" parent="1" vertex="1">
          <mxGeometry x="704" y="1770" width="100" height="340" as="geometry" />
        </mxCell>
        <mxCell id="rNse2086BjmlesnSCy4A-12" value="" style="endArrow=open;endFill=1;endSize=12;html=1;rounded=0;" parent="rNse2086BjmlesnSCy4A-4" source="rNse2086BjmlesnSCy4A-3" edge="1">
          <mxGeometry width="160" relative="1" as="geometry">
            <mxPoint x="-57.25" y="110" as="sourcePoint" />
            <mxPoint x="49.25" y="110" as="targetPoint" />
          </mxGeometry>
        </mxCell>
        <mxCell id="rNse2086BjmlesnSCy4A-24" value="M4A.4: Account Info" style="text;html=1;align=center;verticalAlign=middle;resizable=0;points=[];autosize=1;strokeColor=none;fillColor=none;" parent="rNse2086BjmlesnSCy4A-4" vertex="1">
          <mxGeometry x="-79" y="200" width="130" height="30" as="geometry" />
        </mxCell>
        <mxCell id="rNse2086BjmlesnSCy4A-36" value="" style="group" parent="rNse2086BjmlesnSCy4A-4" vertex="1" connectable="0">
          <mxGeometry x="-88" y="270" width="165" height="35" as="geometry" />
        </mxCell>
        <mxCell id="rNse2086BjmlesnSCy4A-37" value="M4A.7: &lt;br&gt;Account Confirmation" style="text;html=1;align=center;verticalAlign=middle;resizable=0;points=[];autosize=1;strokeColor=none;fillColor=none;" parent="rNse2086BjmlesnSCy4A-36" vertex="1">
          <mxGeometry x="5" y="-10" width="140" height="40" as="geometry" />
        </mxCell>
        <mxCell id="rNse2086BjmlesnSCy4A-38" value="" style="endArrow=open;endFill=1;endSize=12;html=1;rounded=0;" parent="rNse2086BjmlesnSCy4A-36" edge="1">
          <mxGeometry width="160" relative="1" as="geometry">
            <mxPoint x="135.71000000000026" y="25" as="sourcePoint" />
            <mxPoint x="9.209999999999809" y="25" as="targetPoint" />
          </mxGeometry>
        </mxCell>
        <mxCell id="rNse2086BjmlesnSCy4A-5" value="&amp;lt;&amp;lt;service&amp;gt;&amp;gt;&lt;br&gt;:Customer&lt;br&gt;AccountService" style="shape=umlLifeline;perimeter=lifelinePerimeter;whiteSpace=wrap;html=1;container=1;collapsible=0;recursiveResize=0;outlineConnect=0;" parent="1" vertex="1">
          <mxGeometry x="830" y="1770" width="100" height="340" as="geometry" />
        </mxCell>
        <mxCell id="rNse2086BjmlesnSCy4A-13" value="M3:Account Request" style="text;html=1;align=center;verticalAlign=middle;resizable=0;points=[];autosize=1;strokeColor=none;fillColor=none;" parent="rNse2086BjmlesnSCy4A-5" vertex="1">
          <mxGeometry x="-76.21" y="100" width="130" height="30" as="geometry" />
        </mxCell>
        <mxCell id="rNse2086BjmlesnSCy4A-27" value="M4A.5: Create Account" style="text;html=1;align=center;verticalAlign=middle;resizable=0;points=[];autosize=1;strokeColor=none;fillColor=none;" parent="rNse2086BjmlesnSCy4A-5" vertex="1">
          <mxGeometry x="-86.21000000000004" y="210" width="150" height="30" as="geometry" />
        </mxCell>
        <mxCell id="rNse2086BjmlesnSCy4A-32" value="" style="group" parent="rNse2086BjmlesnSCy4A-5" vertex="1" connectable="0">
          <mxGeometry x="-86" y="250" width="150" height="30" as="geometry" />
        </mxCell>
        <mxCell id="rNse2086BjmlesnSCy4A-30" value="M4A.6: Account Created" style="text;html=1;align=center;verticalAlign=middle;resizable=0;points=[];autosize=1;strokeColor=none;fillColor=none;" parent="rNse2086BjmlesnSCy4A-32" vertex="1">
          <mxGeometry width="150" height="30" as="geometry" />
        </mxCell>
        <mxCell id="rNse2086BjmlesnSCy4A-31" value="" style="endArrow=open;endFill=1;endSize=12;html=1;rounded=0;" parent="rNse2086BjmlesnSCy4A-32" edge="1">
          <mxGeometry width="160" relative="1" as="geometry">
            <mxPoint x="135.71000000000026" y="30" as="sourcePoint" />
            <mxPoint x="9.209999999999809" y="30" as="targetPoint" />
          </mxGeometry>
        </mxCell>
        <mxCell id="rNse2086BjmlesnSCy4A-11" value="" style="endArrow=open;endFill=1;endSize=12;html=1;rounded=0;exitX=0.007;exitY=0.015;exitDx=0;exitDy=0;exitPerimeter=0;" parent="1" source="rNse2086BjmlesnSCy4A-16" edge="1">
          <mxGeometry width="160" relative="1" as="geometry">
            <mxPoint x="757.5757142857142" y="1900" as="sourcePoint" />
            <mxPoint x="880" y="1900" as="targetPoint" />
          </mxGeometry>
        </mxCell>
        <mxCell id="rNse2086BjmlesnSCy4A-10" value="M2: Order Request" style="text;html=1;align=center;verticalAlign=middle;resizable=0;points=[];autosize=1;strokeColor=none;fillColor=none;" parent="1" vertex="1">
          <mxGeometry x="620" y="1850" width="130" height="30" as="geometry" />
        </mxCell>
        <mxCell id="rNse2086BjmlesnSCy4A-20" value="M4A.2:&lt;br&gt;Customer Output" style="text;html=1;align=center;verticalAlign=middle;resizable=0;points=[];autosize=1;strokeColor=none;fillColor=none;" parent="1" vertex="1">
          <mxGeometry x="519.29" y="1910" width="110" height="40" as="geometry" />
        </mxCell>
        <mxCell id="rNse2086BjmlesnSCy4A-16" value="M4A[No account]:&lt;br&gt;Account Not Exist" style="text;html=1;align=center;verticalAlign=middle;resizable=0;points=[];autosize=1;strokeColor=none;fillColor=none;" parent="1" vertex="1">
          <mxGeometry x="755" y="1900" width="120" height="40" as="geometry" />
        </mxCell>
        <mxCell id="rNse2086BjmlesnSCy4A-17" value="" style="endArrow=open;endFill=1;endSize=12;html=1;rounded=0;" parent="1" edge="1">
          <mxGeometry width="160" relative="1" as="geometry">
            <mxPoint x="879.5000000000002" y="1935" as="sourcePoint" />
            <mxPoint x="753.7857142857144" y="1935" as="targetPoint" />
          </mxGeometry>
        </mxCell>
        <mxCell id="rNse2086BjmlesnSCy4A-14" value="M4A.1:&lt;br&gt;Account Required" style="text;html=1;align=center;verticalAlign=middle;resizable=0;points=[];autosize=1;strokeColor=none;fillColor=none;" parent="1" vertex="1">
          <mxGeometry x="629.29" y="1910" width="120" height="40" as="geometry" />
        </mxCell>
        <mxCell id="rNse2086BjmlesnSCy4A-15" value="" style="endArrow=open;endFill=1;endSize=12;html=1;rounded=0;" parent="1" edge="1">
          <mxGeometry width="160" relative="1" as="geometry">
            <mxPoint x="753.79" y="1945" as="sourcePoint" />
            <mxPoint x="624.7857142857142" y="1945" as="targetPoint" />
          </mxGeometry>
        </mxCell>
        <mxCell id="rNse2086BjmlesnSCy4A-26" value="" style="endArrow=open;endFill=1;endSize=12;html=1;rounded=0;" parent="1" target="rNse2086BjmlesnSCy4A-4" edge="1">
          <mxGeometry width="160" relative="1" as="geometry">
            <mxPoint x="628" y="2000" as="sourcePoint" />
            <mxPoint x="732.5" y="2000" as="targetPoint" />
          </mxGeometry>
        </mxCell>
        <mxCell id="rNse2086BjmlesnSCy4A-29" value="" style="endArrow=open;endFill=1;endSize=12;html=1;rounded=0;" parent="1" target="rNse2086BjmlesnSCy4A-5" edge="1">
          <mxGeometry width="160" relative="1" as="geometry">
            <mxPoint x="752.9999999999998" y="2010" as="sourcePoint" />
            <mxPoint x="857.5" y="2010" as="targetPoint" />
          </mxGeometry>
        </mxCell>
        <mxCell id="rNse2086BjmlesnSCy4A-42" value="aCustomer" style="text;html=1;align=center;verticalAlign=middle;resizable=0;points=[];autosize=1;strokeColor=none;fillColor=none;" parent="1" vertex="1">
          <mxGeometry x="475" y="1800" width="80" height="30" as="geometry" />
        </mxCell>
        <mxCell id="rNse2086BjmlesnSCy4A-9" value="M1: Order Request" style="text;html=1;align=center;verticalAlign=middle;resizable=0;points=[];autosize=1;strokeColor=none;fillColor=none;" parent="1" vertex="1">
          <mxGeometry x="507" y="1840" width="130" height="30" as="geometry" />
        </mxCell>
        <mxCell id="rNse2086BjmlesnSCy4A-8" value="" style="endArrow=open;endFill=1;endSize=12;html=1;rounded=0;exitX=0.069;exitY=1.063;exitDx=0;exitDy=0;exitPerimeter=0;" parent="1" source="rNse2086BjmlesnSCy4A-9" target="rNse2086BjmlesnSCy4A-3" edge="1">
          <mxGeometry width="160" relative="1" as="geometry">
            <mxPoint x="520" y="1870" as="sourcePoint" />
            <mxPoint x="620" y="1870" as="targetPoint" />
          </mxGeometry>
        </mxCell>
        <mxCell id="rNse2086BjmlesnSCy4A-44" value="&lt;p style=&quot;margin:0px;margin-top:4px;text-align:center;&quot;&gt;&lt;b&gt;LoginUI&lt;/b&gt;&lt;/p&gt;&lt;hr size=&quot;1&quot;&gt;&lt;div style=&quot;height:2px;&quot;&gt;&lt;/div&gt;" style="verticalAlign=top;align=left;overflow=fill;fontSize=12;fontFamily=Helvetica;html=1;" parent="1" vertex="1">
          <mxGeometry x="1110" y="1805" width="170" height="230" as="geometry" />
        </mxCell>
        <mxCell id="rNse2086BjmlesnSCy4A-45" value="" style="line;strokeWidth=1;fillColor=none;align=left;verticalAlign=middle;spacingTop=-1;spacingLeft=3;spacingRight=3;rotatable=0;labelPosition=right;points=[];portConstraint=eastwest;strokeColor=inherit;flipV=1;flipH=1;direction=south;" parent="1" vertex="1">
          <mxGeometry x="1123" y="1829" width="4" height="206" as="geometry" />
        </mxCell>
        <mxCell id="rNse2086BjmlesnSCy4A-46" value="" style="line;strokeWidth=1;fillColor=none;align=left;verticalAlign=middle;spacingTop=-1;spacingLeft=3;spacingRight=3;rotatable=0;labelPosition=right;points=[];portConstraint=eastwest;strokeColor=inherit;" parent="1" vertex="1">
          <mxGeometry x="1127" y="1855" width="153" height="8" as="geometry" />
        </mxCell>
        <mxCell id="rNse2086BjmlesnSCy4A-47" value="接收用户输入登录的&lt;br&gt;账号和密码" style="text;html=1;align=center;verticalAlign=middle;resizable=0;points=[];autosize=1;strokeColor=none;fillColor=none;" parent="1" vertex="1">
          <mxGeometry x="1138.5" y="1823" width="130" height="40" as="geometry" />
        </mxCell>
        <mxCell id="rNse2086BjmlesnSCy4A-48" value="&lt;p style=&quot;margin:0px;margin-top:4px;text-align:center;&quot;&gt;&lt;b&gt;LoginManager&lt;/b&gt;&lt;/p&gt;&lt;hr size=&quot;1&quot;&gt;&lt;div style=&quot;height:2px;&quot;&gt;&lt;/div&gt;" style="verticalAlign=top;align=left;overflow=fill;fontSize=12;fontFamily=Helvetica;html=1;" parent="1" vertex="1">
          <mxGeometry x="1280" y="1805" width="170" height="230" as="geometry" />
        </mxCell>
        <mxCell id="rNse2086BjmlesnSCy4A-49" value="" style="line;strokeWidth=1;fillColor=none;align=left;verticalAlign=middle;spacingTop=-1;spacingLeft=3;spacingRight=3;rotatable=0;labelPosition=right;points=[];portConstraint=eastwest;strokeColor=inherit;flipV=1;flipH=1;direction=south;" parent="1" vertex="1">
          <mxGeometry x="1293" y="1829" width="4" height="206" as="geometry" />
        </mxCell>
        <mxCell id="rNse2086BjmlesnSCy4A-50" value="" style="line;strokeWidth=1;fillColor=none;align=left;verticalAlign=middle;spacingTop=-1;spacingLeft=3;spacingRight=3;rotatable=0;labelPosition=right;points=[];portConstraint=eastwest;strokeColor=inherit;" parent="1" vertex="1">
          <mxGeometry x="1297" y="1855" width="153" height="8" as="geometry" />
        </mxCell>
        <mxCell id="rNse2086BjmlesnSCy4A-51" value="请求检查用户身份的合法性" style="text;html=1;align=center;verticalAlign=middle;resizable=0;points=[];autosize=1;strokeColor=none;fillColor=none;" parent="1" vertex="1">
          <mxGeometry x="1288.5" y="1828" width="170" height="30" as="geometry" />
        </mxCell>
        <mxCell id="rNse2086BjmlesnSCy4A-52" value="&lt;p style=&quot;margin:0px;margin-top:4px;text-align:center;&quot;&gt;&lt;b&gt;UserLibrary&lt;/b&gt;&lt;/p&gt;&lt;hr size=&quot;1&quot;&gt;&lt;div style=&quot;height:2px;&quot;&gt;&lt;/div&gt;" style="verticalAlign=top;align=left;overflow=fill;fontSize=12;fontFamily=Helvetica;html=1;" parent="1" vertex="1">
          <mxGeometry x="1450" y="1805" width="170" height="230" as="geometry" />
        </mxCell>
        <mxCell id="rNse2086BjmlesnSCy4A-53" value="" style="line;strokeWidth=1;fillColor=none;align=left;verticalAlign=middle;spacingTop=-1;spacingLeft=3;spacingRight=3;rotatable=0;labelPosition=right;points=[];portConstraint=eastwest;strokeColor=inherit;flipV=1;flipH=1;direction=south;" parent="1" vertex="1">
          <mxGeometry x="1463" y="1829" width="4" height="206" as="geometry" />
        </mxCell>
        <mxCell id="rNse2086BjmlesnSCy4A-54" value="" style="line;strokeWidth=1;fillColor=none;align=left;verticalAlign=middle;spacingTop=-1;spacingLeft=3;spacingRight=3;rotatable=0;labelPosition=right;points=[];portConstraint=eastwest;strokeColor=inherit;" parent="1" vertex="1">
          <mxGeometry x="1467" y="1855" width="153" height="8" as="geometry" />
        </mxCell>
        <mxCell id="rNse2086BjmlesnSCy4A-55" value="检查用户身份的合法性" style="text;html=1;align=center;verticalAlign=middle;resizable=0;points=[];autosize=1;strokeColor=none;fillColor=none;" parent="1" vertex="1">
          <mxGeometry x="1473.5" y="1828" width="140" height="30" as="geometry" />
        </mxCell>
        <mxCell id="rNse2086BjmlesnSCy4A-60" style="edgeStyle=orthogonalEdgeStyle;rounded=0;orthogonalLoop=1;jettySize=auto;html=1;exitX=0.5;exitY=1;exitDx=0;exitDy=0;entryX=0.5;entryY=0;entryDx=0;entryDy=0;entryPerimeter=0;" parent="1" source="rNse2086BjmlesnSCy4A-56" target="rNse2086BjmlesnSCy4A-57" edge="1">
          <mxGeometry relative="1" as="geometry" />
        </mxCell>
        <mxCell id="rNse2086BjmlesnSCy4A-56" value="获取输入的账号和密码" style="rounded=1;whiteSpace=wrap;html=1;absoluteArcSize=1;arcSize=14;strokeWidth=2;" parent="1" vertex="1">
          <mxGeometry x="1151" y="1875" width="99" height="30" as="geometry" />
        </mxCell>
        <mxCell id="rNse2086BjmlesnSCy4A-61" style="edgeStyle=orthogonalEdgeStyle;rounded=0;orthogonalLoop=1;jettySize=auto;html=1;exitX=0;exitY=0.5;exitDx=0;exitDy=0;exitPerimeter=0;entryX=0;entryY=0.5;entryDx=0;entryDy=0;" parent="1" source="rNse2086BjmlesnSCy4A-57" target="rNse2086BjmlesnSCy4A-56" edge="1">
          <mxGeometry relative="1" as="geometry" />
        </mxCell>
        <mxCell id="rNse2086BjmlesnSCy4A-62" style="edgeStyle=orthogonalEdgeStyle;rounded=0;orthogonalLoop=1;jettySize=auto;html=1;exitX=0.5;exitY=1;exitDx=0;exitDy=0;exitPerimeter=0;entryX=0;entryY=0.5;entryDx=0;entryDy=0;entryPerimeter=0;" parent="1" source="rNse2086BjmlesnSCy4A-57" target="rNse2086BjmlesnSCy4A-58" edge="1">
          <mxGeometry relative="1" as="geometry" />
        </mxCell>
        <mxCell id="rNse2086BjmlesnSCy4A-57" value="检查输入&lt;br&gt;是否合法" style="strokeWidth=2;html=1;shape=mxgraph.flowchart.decision;whiteSpace=wrap;" parent="1" vertex="1">
          <mxGeometry x="1165.5" y="1925" width="70" height="70" as="geometry" />
        </mxCell>
        <mxCell id="rNse2086BjmlesnSCy4A-63" style="edgeStyle=orthogonalEdgeStyle;rounded=0;orthogonalLoop=1;jettySize=auto;html=1;exitX=0.5;exitY=0;exitDx=0;exitDy=0;exitPerimeter=0;entryX=1;entryY=0.5;entryDx=0;entryDy=0;" parent="1" source="rNse2086BjmlesnSCy4A-58" target="rNse2086BjmlesnSCy4A-56" edge="1">
          <mxGeometry relative="1" as="geometry">
            <Array as="points">
              <mxPoint x="1374" y="1890" />
            </Array>
          </mxGeometry>
        </mxCell>
        <mxCell id="rNse2086BjmlesnSCy4A-64" style="edgeStyle=orthogonalEdgeStyle;rounded=0;orthogonalLoop=1;jettySize=auto;html=1;exitX=1;exitY=0.5;exitDx=0;exitDy=0;exitPerimeter=0;entryX=0;entryY=0.5;entryDx=0;entryDy=0;" parent="1" source="rNse2086BjmlesnSCy4A-58" target="rNse2086BjmlesnSCy4A-59" edge="1">
          <mxGeometry relative="1" as="geometry" />
        </mxCell>
        <mxCell id="rNse2086BjmlesnSCy4A-58" value="检查输入&lt;br&gt;是否为空" style="strokeWidth=2;html=1;shape=mxgraph.flowchart.decision;whiteSpace=wrap;" parent="1" vertex="1">
          <mxGeometry x="1338.5" y="1897" width="70" height="70" as="geometry" />
        </mxCell>
        <mxCell id="rNse2086BjmlesnSCy4A-59" value="检查用户身份的合法性" style="rounded=1;whiteSpace=wrap;html=1;absoluteArcSize=1;arcSize=14;strokeWidth=2;" parent="1" vertex="1">
          <mxGeometry x="1494" y="1917" width="99" height="30" as="geometry" />
        </mxCell>
        <mxCell id="rNse2086BjmlesnSCy4A-65" value="不合法" style="text;html=1;align=center;verticalAlign=middle;resizable=0;points=[];autosize=1;strokeColor=none;fillColor=none;" parent="1" vertex="1">
          <mxGeometry x="1123" y="1925" width="60" height="30" as="geometry" />
        </mxCell>
        <mxCell id="rNse2086BjmlesnSCy4A-66" value="合法" style="text;html=1;align=center;verticalAlign=middle;resizable=0;points=[];autosize=1;strokeColor=none;fillColor=none;" parent="1" vertex="1">
          <mxGeometry x="1218.5" y="1985" width="50" height="30" as="geometry" />
        </mxCell>
        <mxCell id="rNse2086BjmlesnSCy4A-67" value="为空" style="text;html=1;align=center;verticalAlign=middle;resizable=0;points=[];autosize=1;strokeColor=none;fillColor=none;" parent="1" vertex="1">
          <mxGeometry x="1293" y="1863" width="50" height="30" as="geometry" />
        </mxCell>
        <mxCell id="rNse2086BjmlesnSCy4A-68" value="非空" style="text;html=1;align=center;verticalAlign=middle;resizable=0;points=[];autosize=1;strokeColor=none;fillColor=none;" parent="1" vertex="1">
          <mxGeometry x="1409" y="1905" width="50" height="30" as="geometry" />
        </mxCell>
        <mxCell id="rNse2086BjmlesnSCy4A-69" value="&lt;p style=&quot;margin:0px;margin-top:4px;text-align:center;&quot;&gt;&lt;b&gt;Idle&lt;/b&gt;&lt;/p&gt;&lt;hr size=&quot;1&quot;&gt;&lt;div style=&quot;height:2px;&quot;&gt;Entry/Display/Welcome&lt;/div&gt;" style="verticalAlign=top;align=left;overflow=fill;fontSize=12;fontFamily=Helvetica;html=1;" parent="1" vertex="1">
          <mxGeometry x="1789.75" y="2200" width="140" height="60" as="geometry" />
        </mxCell>
        <mxCell id="kERZkQC0_4Xc4Fubq4AF-3" style="edgeStyle=orthogonalEdgeStyle;rounded=0;orthogonalLoop=1;jettySize=auto;html=1;exitX=1;exitY=0.25;exitDx=0;exitDy=0;" edge="1" parent="1" source="rNse2086BjmlesnSCy4A-70" target="kERZkQC0_4Xc4Fubq4AF-1">
          <mxGeometry relative="1" as="geometry" />
        </mxCell>
        <mxCell id="rNse2086BjmlesnSCy4A-70" value="" style="rounded=1;whiteSpace=wrap;html=1;absoluteArcSize=1;arcSize=14;strokeWidth=2;" parent="1" vertex="1">
          <mxGeometry x="1459" y="2240" width="281" height="340" as="geometry" />
        </mxCell>
        <mxCell id="rNse2086BjmlesnSCy4A-71" value="Processing&lt;br&gt;Customer&lt;br&gt;Input" style="text;html=1;align=center;verticalAlign=middle;resizable=0;points=[];autosize=1;strokeColor=none;fillColor=none;" parent="1" vertex="1">
          <mxGeometry x="1459" y="2240" width="80" height="60" as="geometry" />
        </mxCell>
        <mxCell id="rNse2086BjmlesnSCy4A-75" style="edgeStyle=orthogonalEdgeStyle;rounded=0;orthogonalLoop=1;jettySize=auto;html=1;exitX=0.25;exitY=1;exitDx=0;exitDy=0;entryX=0.25;entryY=0;entryDx=0;entryDy=0;" parent="1" source="rNse2086BjmlesnSCy4A-72" target="rNse2086BjmlesnSCy4A-73" edge="1">
          <mxGeometry relative="1" as="geometry" />
        </mxCell>
        <mxCell id="rNse2086BjmlesnSCy4A-72" value="Waiting for PIN" style="rounded=1;whiteSpace=wrap;html=1;absoluteArcSize=1;arcSize=14;strokeWidth=2;" parent="1" vertex="1">
          <mxGeometry x="1549.5" y="2300" width="100" height="50" as="geometry" />
        </mxCell>
        <mxCell id="rNse2086BjmlesnSCy4A-76" style="edgeStyle=orthogonalEdgeStyle;rounded=0;orthogonalLoop=1;jettySize=auto;html=1;exitX=0.75;exitY=0;exitDx=0;exitDy=0;entryX=0.75;entryY=1;entryDx=0;entryDy=0;" parent="1" source="rNse2086BjmlesnSCy4A-73" target="rNse2086BjmlesnSCy4A-72" edge="1">
          <mxGeometry relative="1" as="geometry" />
        </mxCell>
        <mxCell id="rNse2086BjmlesnSCy4A-77" style="edgeStyle=orthogonalEdgeStyle;rounded=0;orthogonalLoop=1;jettySize=auto;html=1;exitX=0.5;exitY=1;exitDx=0;exitDy=0;entryX=0.5;entryY=0;entryDx=0;entryDy=0;" parent="1" source="rNse2086BjmlesnSCy4A-73" target="rNse2086BjmlesnSCy4A-74" edge="1">
          <mxGeometry relative="1" as="geometry" />
        </mxCell>
        <mxCell id="kERZkQC0_4Xc4Fubq4AF-5" style="edgeStyle=orthogonalEdgeStyle;rounded=0;orthogonalLoop=1;jettySize=auto;html=1;exitX=1;exitY=0.25;exitDx=0;exitDy=0;entryX=0;entryY=0.25;entryDx=0;entryDy=0;" edge="1" parent="1" source="rNse2086BjmlesnSCy4A-73" target="kERZkQC0_4Xc4Fubq4AF-2">
          <mxGeometry relative="1" as="geometry" />
        </mxCell>
        <mxCell id="kERZkQC0_4Xc4Fubq4AF-6" style="edgeStyle=orthogonalEdgeStyle;rounded=0;orthogonalLoop=1;jettySize=auto;html=1;exitX=1;exitY=0.75;exitDx=0;exitDy=0;entryX=0;entryY=0.75;entryDx=0;entryDy=0;" edge="1" parent="1" source="rNse2086BjmlesnSCy4A-73" target="kERZkQC0_4Xc4Fubq4AF-2">
          <mxGeometry relative="1" as="geometry" />
        </mxCell>
        <mxCell id="rNse2086BjmlesnSCy4A-73" value="Validating PIN" style="rounded=1;whiteSpace=wrap;html=1;absoluteArcSize=1;arcSize=14;strokeWidth=2;" parent="1" vertex="1">
          <mxGeometry x="1549.5" y="2380" width="100" height="50" as="geometry" />
        </mxCell>
        <mxCell id="rNse2086BjmlesnSCy4A-82" style="edgeStyle=orthogonalEdgeStyle;rounded=0;orthogonalLoop=1;jettySize=auto;html=1;exitX=0.5;exitY=1;exitDx=0;exitDy=0;entryX=0.5;entryY=0;entryDx=0;entryDy=0;" parent="1" source="rNse2086BjmlesnSCy4A-74" target="rNse2086BjmlesnSCy4A-81" edge="1">
          <mxGeometry relative="1" as="geometry" />
        </mxCell>
        <mxCell id="rNse2086BjmlesnSCy4A-83" style="edgeStyle=orthogonalEdgeStyle;rounded=0;orthogonalLoop=1;jettySize=auto;html=1;exitX=1;exitY=0.5;exitDx=0;exitDy=0;entryX=0.75;entryY=0;entryDx=0;entryDy=0;" parent="1" source="rNse2086BjmlesnSCy4A-74" target="rNse2086BjmlesnSCy4A-81" edge="1">
          <mxGeometry relative="1" as="geometry" />
        </mxCell>
        <mxCell id="rNse2086BjmlesnSCy4A-84" style="edgeStyle=orthogonalEdgeStyle;rounded=0;orthogonalLoop=1;jettySize=auto;html=1;exitX=0;exitY=0.5;exitDx=0;exitDy=0;entryX=0.25;entryY=0;entryDx=0;entryDy=0;" parent="1" source="rNse2086BjmlesnSCy4A-74" target="rNse2086BjmlesnSCy4A-81" edge="1">
          <mxGeometry relative="1" as="geometry">
            <Array as="points">
              <mxPoint x="1504" y="2485" />
            </Array>
          </mxGeometry>
        </mxCell>
        <mxCell id="rNse2086BjmlesnSCy4A-74" value="Waiting for&lt;br&gt;Customer Choice" style="rounded=1;whiteSpace=wrap;html=1;absoluteArcSize=1;arcSize=14;strokeWidth=2;" parent="1" vertex="1">
          <mxGeometry x="1549.5" y="2460" width="100" height="50" as="geometry" />
        </mxCell>
        <mxCell id="rNse2086BjmlesnSCy4A-78" value="PIN Entered/&lt;br&gt;Validate PIN" style="text;html=1;align=center;verticalAlign=middle;resizable=0;points=[];autosize=1;strokeColor=none;fillColor=none;" parent="1" vertex="1">
          <mxGeometry x="1463" y="2340" width="90" height="40" as="geometry" />
        </mxCell>
        <mxCell id="rNse2086BjmlesnSCy4A-79" value="Invalid PIN/&lt;br&gt;Invaild PIN Prompt" style="text;html=1;align=center;verticalAlign=middle;resizable=0;points=[];autosize=1;strokeColor=none;fillColor=none;" parent="1" vertex="1">
          <mxGeometry x="1620" y="2340" width="120" height="40" as="geometry" />
        </mxCell>
        <mxCell id="rNse2086BjmlesnSCy4A-80" value="Valid PIN/&lt;br&gt;Display Menu,&lt;br&gt;Update Status" style="text;html=1;align=center;verticalAlign=middle;resizable=0;points=[];autosize=1;strokeColor=none;fillColor=none;" parent="1" vertex="1">
          <mxGeometry x="1640" y="2420" width="100" height="60" as="geometry" />
        </mxCell>
        <mxCell id="rNse2086BjmlesnSCy4A-81" value="Processing Transaction" style="rounded=1;whiteSpace=wrap;html=1;absoluteArcSize=1;arcSize=14;strokeWidth=2;" parent="1" vertex="1">
          <mxGeometry x="1409.25" y="2610" width="380.5" height="60" as="geometry" />
        </mxCell>
        <mxCell id="rNse2086BjmlesnSCy4A-85" value="Withdrawal Selected/&lt;br&gt;Request Withdrawal,&lt;br&gt;Display Wait" style="text;html=1;align=center;verticalAlign=middle;resizable=0;points=[];autosize=1;strokeColor=none;fillColor=none;" parent="1" vertex="1">
          <mxGeometry x="1327" y="2540" width="140" height="60" as="geometry" />
        </mxCell>
        <mxCell id="rNse2086BjmlesnSCy4A-86" value="Query Selected /&amp;nbsp;&lt;br&gt;Request Query,&lt;br&gt;Display Wait" style="text;html=1;align=center;verticalAlign=middle;resizable=0;points=[];autosize=1;strokeColor=none;fillColor=none;" parent="1" vertex="1">
          <mxGeometry x="1549.5" y="2520" width="120" height="60" as="geometry" />
        </mxCell>
        <mxCell id="rNse2086BjmlesnSCy4A-87" value="Transfer Selected /&amp;nbsp;&lt;br&gt;Request Transfer,&lt;br&gt;Display Wait" style="text;html=1;align=center;verticalAlign=middle;resizable=0;points=[];autosize=1;strokeColor=none;fillColor=none;" parent="1" vertex="1">
          <mxGeometry x="1740" y="2540" width="130" height="60" as="geometry" />
        </mxCell>
        <mxCell id="rNse2086BjmlesnSCy4A-88" style="edgeStyle=orthogonalEdgeStyle;rounded=0;orthogonalLoop=1;jettySize=auto;html=1;exitX=0;exitY=0.5;exitDx=0;exitDy=0;entryX=0.5;entryY=0;entryDx=0;entryDy=0;" parent="1" source="rNse2086BjmlesnSCy4A-69" target="rNse2086BjmlesnSCy4A-72" edge="1">
          <mxGeometry relative="1" as="geometry" />
        </mxCell>
        <mxCell id="rNse2086BjmlesnSCy4A-89" value="Card Inserted&lt;br&gt;Get PIN" style="text;html=1;align=center;verticalAlign=middle;resizable=0;points=[];autosize=1;strokeColor=none;fillColor=none;" parent="1" vertex="1">
          <mxGeometry x="1660" y="2190" width="100" height="40" as="geometry" />
        </mxCell>
        <mxCell id="kERZkQC0_4Xc4Fubq4AF-1" value="Ejecting" style="rounded=1;whiteSpace=wrap;html=1;absoluteArcSize=1;arcSize=14;strokeWidth=2;" vertex="1" parent="1">
          <mxGeometry x="1820" y="2300" width="100" height="50" as="geometry" />
        </mxCell>
        <mxCell id="kERZkQC0_4Xc4Fubq4AF-2" value="Confiscating" style="rounded=1;whiteSpace=wrap;html=1;absoluteArcSize=1;arcSize=14;strokeWidth=2;" vertex="1" parent="1">
          <mxGeometry x="1900" y="2380" width="100" height="50" as="geometry" />
        </mxCell>
        <mxCell id="kERZkQC0_4Xc4Fubq4AF-4" value="Cancel/Eject,&lt;br&gt;Display Cancel" style="text;html=1;align=center;verticalAlign=middle;resizable=0;points=[];autosize=1;strokeColor=none;fillColor=none;" vertex="1" parent="1">
          <mxGeometry x="1730" y="2280" width="100" height="40" as="geometry" />
        </mxCell>
        <mxCell id="kERZkQC0_4Xc4Fubq4AF-7" value="Card Stolen,Card Expired /&lt;br&gt;Confiscate, Update Status" style="text;html=1;align=center;verticalAlign=middle;resizable=0;points=[];autosize=1;strokeColor=none;fillColor=none;" vertex="1" parent="1">
          <mxGeometry x="1730" y="2350" width="170" height="40" as="geometry" />
        </mxCell>
        <mxCell id="kERZkQC0_4Xc4Fubq4AF-8" value="Third Invalid PIN /&lt;br&gt;Confiscate" style="text;html=1;align=center;verticalAlign=middle;resizable=0;points=[];autosize=1;strokeColor=none;fillColor=none;" vertex="1" parent="1">
          <mxGeometry x="1730" y="2430" width="120" height="40" as="geometry" />
        </mxCell>
      </root>
    </mxGraphModel>
  </diagram>
</mxfile>
